<?xml version="1.0" standalone="no"?>
<!DOCTYPE svg PUBLIC "-//W3C//DTD SVG 20010904//EN"
        "http://www.w3.org/TR/2001/REC-SVG-20010904/DTD/svg10.dtd">
<svg version="1.0" xmlns="http://www.w3.org/2000/svg"
     width="256.000000pt" height="256.000000pt" viewBox="0 0 256.000000 256.000000"
     preserveAspectRatio="xMidYMid meet">

    <g transform="translate(0.000000,256.000000) scale(0.100000,-0.100000)"
       fill="#000000" stroke="none">
        <path d="M1216 2521 c-27 -28 -28 -34 -33 -155 l-6 -125 -46 -6 c-580 -75
-975 -411 -1082 -920 -10 -49 -19 -120 -19 -157 l0 -67 68 51 c212 161 426
175 648 42 32 -19 76 -48 96 -65 20 -16 40 -29 43 -29 4 0 32 23 63 51 199
177 481 175 671 -6 50 -47 60 -53 71 -41 21 26 163 113 228 140 34 14 95 31
135 38 132 20 285 -28 418 -131 l64 -50 3 44 c4 59 -21 202 -54 306 -106 340
-394 617 -760 732 -81 26 -200 51 -291 62 l-51 7 -4 130 c-3 128 -3 130 -31
154 -41 35 -95 33 -131 -5z"/>
        <path d="M1238 1165 c-51 -28 -52 -35 -55 -425 -2 -201 -6 -384 -9 -408 -10
-81 -81 -132 -185 -132 -109 0 -169 47 -189 147 -18 87 -30 112 -61 128 -44
23 -77 18 -111 -15 -30 -30 -30 -33 -26 -110 8 -146 80 -249 217 -312 62 -28
69 -29 185 -26 111 3 126 6 179 33 73 36 139 108 169 183 22 56 23 67 26 469
l3 411 -28 31 c-33 37 -78 47 -115 26z"/>
    </g>
</svg>
