<?xml version="1.0" standalone="no"?>
<!DOCTYPE svg PUBLIC "-//W3C//DTD SVG 20010904//EN"
        "http://www.w3.org/TR/2001/REC-SVG-20010904/DTD/svg10.dtd">
<svg version="1.0" xmlns="http://www.w3.org/2000/svg"
     width="512.000000pt" height="512.000000pt" viewBox="0 0 512.000000 512.000000"
     preserveAspectRatio="xMidYMid meet">

    <g transform="translate(0.000000,512.000000) scale(0.100000,-0.100000)"
       fill="#000000" stroke="none">
        <path d="M1315 4613 c-133 -104 -243 -239 -323 -398 -172 -345 -182 -849 -31
-1485 70 -292 87 -394 99 -600 14 -247 -8 -436 -76 -639 -33 -101 -124 -289
-164 -341 l-19 -25 -186 185 -185 185 0 -533 0 -532 532 0 533 0 -196 197
-196 198 63 90 c110 159 214 388 265 587 41 161 51 243 56 448 7 290 -10 435
-103 837 -60 263 -81 394 -95 580 -30 415 39 673 234 865 l68 68 -97 180 c-54
99 -102 180 -108 180 -6 0 -38 -21 -71 -47z"/>
        <path d="M2595 4613 c-133 -104 -243 -239 -323 -398 -172 -345 -182 -849 -31
-1485 70 -292 87 -394 99 -600 14 -247 -8 -436 -76 -639 -33 -101 -124 -289
-164 -341 l-19 -25 -186 185 -185 185 0 -533 0 -532 532 0 533 0 -196 197
-196 198 63 90 c110 159 214 388 265 587 41 161 51 243 56 448 7 290 -10 435
-103 837 -60 263 -81 394 -95 580 -30 415 39 673 234 865 l68 68 -97 180 c-54
99 -102 180 -108 180 -6 0 -38 -21 -71 -47z"/>
        <path d="M3630 4265 l0 -215 320 0 320 0 0 -210 0 -210 -215 0 -215 0 0 -215
0 -215 215 0 215 0 -2 -212 -3 -213 -317 -3 -318 -2 0 -210 0 -210 318 -2 317
-3 3 -212 2 -213 -215 0 -215 0 0 -215 0 -215 215 0 215 0 0 -210 0 -210 -320
0 -320 0 0 -215 0 -215 530 0 530 0 0 1920 0 1920 -530 0 -530 0 0 -215z"/>
    </g>
</svg>
